<svg width="134" height="40" viewBox="0 0 134 40" fill="none" xmlns="http://www.w3.org/2000/svg">
<g clip-path="url(#clip0_143_964)">
<path d="M123.34 0.157959H9.70472C9.33422 0.157959 8.99021 0.157959 8.61972 0.157959C8.32859 0.157959 8.01102 0.157959 7.71994 0.157959C7.05836 0.184314 6.39674 0.210669 5.76165 0.342443C5.10002 0.447863 4.49137 0.658699 3.90917 0.948604C3.32697 1.23851 2.79769 1.63383 2.32135 2.10822C1.845 2.58261 1.47451 3.1097 1.15695 3.68951C0.839383 4.29567 0.65414 4.90181 0.548284 5.53436C0.442428 6.19321 0.389501 6.82576 0.363037 7.48461C0.363037 7.80086 0.363037 8.09076 0.363037 8.40701C0.363037 8.74966 0.363037 9.11861 0.363037 9.46121V30.387C0.363037 30.756 0.363037 31.0986 0.363037 31.4412C0.363037 31.7311 0.363037 32.0473 0.389501 32.3372C0.415964 32.9961 0.442428 33.655 0.574748 34.2875C0.680599 34.9464 0.892311 35.5525 1.18341 36.1323C1.47451 36.7121 1.87147 37.2392 2.34781 37.7136C2.82416 38.188 3.35343 38.557 3.93563 38.8732C4.5443 39.1895 5.15295 39.374 5.78809 39.4794C6.44967 39.5848 7.11129 39.6375 7.74638 39.6639C8.03751 39.6639 8.35508 39.6639 8.64616 39.6639C9.01666 39.6639 9.36067 39.6639 9.73116 39.6639H123.366C123.71 39.6639 124.081 39.6639 124.425 39.6639C124.716 39.6639 125.033 39.6639 125.325 39.6639C125.986 39.6375 126.648 39.6112 127.283 39.4794C127.944 39.374 128.553 39.1631 129.162 38.8732C129.744 38.5833 130.273 38.188 130.75 37.7136C131.226 37.2656 131.596 36.7121 131.914 36.1323C132.205 35.5525 132.417 34.92 132.523 34.2875C132.655 33.6286 132.681 32.9961 132.708 32.3372C132.708 32.0473 132.708 31.7311 132.708 31.4412C132.708 31.0986 132.708 30.7296 132.708 30.387V9.46121C132.708 9.09226 132.708 8.74966 132.708 8.40701C132.708 8.11711 132.708 7.80086 132.708 7.51096C132.681 6.85211 132.655 6.19321 132.523 5.56071C132.417 4.90181 132.205 4.29567 131.914 3.71587C131.623 3.13606 131.226 2.60896 130.75 2.13457C130.3 1.66018 129.744 1.29122 129.162 0.974959C128.553 0.685054 127.944 0.474219 127.283 0.368798C126.648 0.263379 125.986 0.210669 125.325 0.184314C125.033 0.184314 124.716 0.184314 124.425 0.184314C124.054 0.157959 123.71 0.157959 123.34 0.157959Z" fill="black"/>
<path d="M8.64641 38.8473C8.35528 38.8473 8.0642 38.8473 7.77312 38.8473C7.21735 38.8209 6.58222 38.7946 5.94712 38.6891C5.33843 38.5837 4.80915 38.3992 4.33282 38.1621C3.83001 37.8985 3.35367 37.5822 2.95671 37.1606C2.55976 36.7652 2.21573 36.3172 1.95109 35.7901C1.68646 35.2894 1.52767 34.7623 1.42182 34.1825C1.2895 33.5236 1.26304 32.8647 1.26304 32.364C1.26304 32.1531 1.23657 31.4679 1.23657 31.4679V8.40743C1.23657 8.40743 1.23657 7.72223 1.26304 7.53773C1.26304 7.03698 1.31596 6.35178 1.42182 5.71923C1.52767 5.11308 1.71292 4.58598 1.95109 4.08524C2.21573 3.5845 2.53329 3.11011 2.95671 2.71479C3.35367 2.31946 3.83001 1.97685 4.33282 1.7133C4.83564 1.44975 5.36492 1.29162 5.94712 1.1862C6.6087 1.08078 7.27028 1.02808 7.77312 1.02808H8.64641H124.425H125.325C125.828 1.02808 126.489 1.08078 127.151 1.1862C127.733 1.29162 128.262 1.47611 128.792 1.7133C129.294 1.97685 129.744 2.29311 130.168 2.71479C130.564 3.11011 130.909 3.55814 131.173 4.08524C131.438 4.58598 131.597 5.11308 131.702 5.69288C131.808 6.29903 131.861 6.93158 131.861 7.53773C131.861 7.80128 131.861 8.11753 131.861 8.40743C131.861 8.77638 131.861 9.11903 131.861 9.46163V30.3874C131.861 30.73 131.861 31.099 131.861 31.4416C131.861 31.7578 131.861 32.0477 131.861 32.3376C131.835 32.9174 131.808 33.55 131.702 34.1561C131.597 34.7623 131.438 35.2894 131.173 35.7901C130.909 36.2909 130.564 36.7652 130.168 37.1342C129.771 37.5295 129.294 37.8722 128.792 38.1357C128.289 38.3992 127.759 38.5574 127.151 38.6628C126.515 38.7682 125.88 38.7946 125.325 38.8209C125.033 38.8209 124.743 38.8209 124.452 38.8209H123.393L8.64641 38.8473Z" fill="white"/>
<path d="M49.4794 26.8564H44.8219L43.6839 29.9399H41.6462L46.1978 18.3701H48.13L52.7873 29.9399H50.6438L49.4794 26.8564ZM45.4041 25.2751H48.871L47.6271 21.9544C47.4681 21.5064 47.2832 20.9793 47.1242 20.4258C46.9656 20.9265 46.8066 21.4273 46.6481 21.928L45.4041 25.2751Z" fill="black"/>
<path d="M53.6079 23.4299C53.6079 22.7973 53.5815 22.0858 53.5552 21.3215H55.4074C55.4869 21.6904 55.5133 22.033 55.5396 22.402C56.3074 21.5587 57.1806 21.137 58.186 21.137C58.7685 21.137 59.2978 21.2688 59.8007 21.5587C60.3032 21.8486 60.7002 22.2966 60.9915 22.9291C61.2827 23.5616 61.4412 24.3523 61.4412 25.301C61.4412 26.3025 61.2559 27.1722 60.912 27.8838C60.568 28.5954 60.0915 29.1489 59.4563 29.4915C58.848 29.8604 58.1333 30.0449 57.3128 30.0449C56.7309 30.0449 56.1484 29.9395 55.5664 29.755V33.3656L53.5815 33.5238V23.4299H53.6079ZM58.8212 27.8311C59.2182 27.304 59.43 26.5134 59.43 25.4592C59.43 24.484 59.2714 23.7988 58.927 23.3771C58.5831 22.9555 58.1597 22.7183 57.6041 22.7183C57.207 22.7183 56.8631 22.7973 56.5455 22.9818C56.2279 23.1663 55.9104 23.4035 55.6191 23.7198V28.3319C55.8045 28.4373 56.0426 28.5163 56.3074 28.569C56.5718 28.6218 56.8367 28.6481 57.0748 28.6481C57.8158 28.6481 58.3978 28.3846 58.8212 27.8311Z" fill="black"/>
<path d="M62.632 23.4299C62.632 22.7973 62.6057 22.0858 62.5793 21.3215H64.4316C64.5111 21.6904 64.5375 22.033 64.5638 22.402C65.3316 21.5587 66.2048 21.137 67.2102 21.137C67.7927 21.137 68.3219 21.2688 68.8249 21.5587C69.3273 21.8486 69.7244 22.2966 70.0156 22.9291C70.3064 23.5616 70.4654 24.3523 70.4654 25.301C70.4654 26.3025 70.28 27.1722 69.9361 27.8838C69.5922 28.5954 69.1156 29.1489 68.4805 29.4915C67.8722 29.8604 67.1575 30.0449 66.337 30.0449C65.755 30.0449 65.1726 29.9395 64.5906 29.755V33.3656L62.6057 33.5238V23.4299H62.632ZM67.8453 27.8311C68.2424 27.304 68.4541 26.5134 68.4541 25.4592C68.4541 24.484 68.2956 23.7988 67.9512 23.3771C67.6073 22.9555 67.1839 22.7183 66.6282 22.7183C66.2312 22.7183 65.8872 22.7973 65.5697 22.9818C65.2521 23.1663 64.9345 23.4035 64.6433 23.7198V28.3319C64.8287 28.4373 65.0667 28.5163 65.3316 28.569C65.596 28.6218 65.8609 28.6481 66.0989 28.6481C66.8399 28.6481 67.4487 28.3846 67.8453 27.8311Z" fill="black"/>
<path d="M74.0907 29.3863C73.2439 28.912 72.5824 28.2531 72.1326 27.357C71.6829 26.4873 71.4443 25.4331 71.4443 24.2472C71.4443 22.9558 71.7092 21.8489 72.2385 20.9528C72.7678 20.0567 73.482 19.3715 74.4083 18.9235C75.3083 18.4755 76.3401 18.2383 77.4781 18.2383C78.1396 18.2383 78.7748 18.3173 79.3835 18.4491C79.9923 18.6072 80.548 18.7917 81.0772 19.0553L80.5743 20.5838C79.5158 20.0831 78.5103 19.8459 77.5576 19.8459C76.7635 19.8459 76.0493 20.0304 75.4405 20.373C74.8317 20.7156 74.3556 21.2164 74.038 21.8752C73.6937 22.5341 73.5351 23.3511 73.5351 24.2735C73.5351 25.0905 73.6673 25.8284 73.9322 26.461C74.1966 27.0935 74.5937 27.5942 75.1493 27.9895C75.7049 28.3585 76.4196 28.543 77.2664 28.543C77.6635 28.543 78.0338 28.5166 78.4308 28.4376C78.8279 28.3585 79.1718 28.2794 79.5158 28.1477V25.8021H76.843V24.2735H81.4475V29.1492C80.786 29.4654 80.0982 29.7026 79.3572 29.8607C78.6162 30.0189 77.9016 30.0979 77.1869 30.0979C75.9698 30.0979 74.9639 29.8607 74.0907 29.3863Z" fill="black"/>
<path d="M88.4077 29.9393C88.3281 29.5967 88.3018 29.2277 88.2754 28.806C87.9579 29.175 87.5872 29.4649 87.0847 29.7284C86.6081 29.992 86.0525 30.0974 85.4173 30.0974C84.9144 30.0974 84.4646 29.992 84.0676 29.8075C83.6705 29.623 83.3266 29.3331 83.0885 28.9378C82.8504 28.5425 82.7178 28.0681 82.7178 27.5146C82.7178 26.6713 83.009 26.0124 83.6178 25.5117C84.2266 25.0109 85.232 24.7737 86.6345 24.7737C87.1637 24.7737 87.693 24.8001 88.1959 24.8792V24.721C88.1959 23.9567 88.0369 23.4296 87.7194 23.1134C87.4018 22.7971 86.9257 22.639 86.3169 22.639C85.8935 22.639 85.4437 22.6917 84.9676 22.8235C84.491 22.9553 84.0676 23.087 83.6973 23.2715L83.3797 21.8484C83.7236 21.6902 84.1998 21.5321 84.7822 21.4003C85.3642 21.2685 85.973 21.1895 86.6081 21.1895C87.3491 21.1895 87.9842 21.2949 88.5135 21.5321C89.0428 21.7693 89.4399 22.1383 89.7306 22.6917C90.0218 23.2452 90.1809 23.9831 90.1809 24.9055V28.3316C90.1809 28.7006 90.2072 29.2277 90.2336 29.9393H88.4077ZM87.2432 28.3316C87.6667 28.1472 87.9842 27.8836 88.2486 27.5937V25.9861C87.7194 25.9334 87.2696 25.907 86.9257 25.907C86.1052 25.907 85.5495 26.0388 85.232 26.3023C84.9144 26.5659 84.7558 26.9085 84.7558 27.3565C84.7558 27.7782 84.8617 28.0945 85.0998 28.3053C85.3378 28.5161 85.6291 28.6215 86.0261 28.6215C86.4227 28.6479 86.8198 28.5425 87.2432 28.3316Z" fill="black"/>
<path d="M91.7419 27.8838V17.7109L93.7005 17.5527V27.5412C93.7005 27.9102 93.7532 28.1737 93.8859 28.3319C94.0181 28.49 94.2034 28.5691 94.4942 28.5691C94.6269 28.5691 94.7854 28.5427 95.0235 28.49L95.262 29.9132C95.0766 29.9922 94.8386 30.0449 94.5737 30.0976C94.3093 30.1504 94.0444 30.1767 93.8064 30.1767C92.4302 30.0976 91.7419 29.3597 91.7419 27.8838Z" fill="black"/>
<path d="M96.6646 27.8838V17.7109L98.6227 17.5527V27.5412C98.6227 27.9102 98.6758 28.1737 98.808 28.3319C98.9402 28.49 99.1256 28.5691 99.4164 28.5691C99.549 28.5691 99.7076 28.5427 99.9456 28.49L100.184 29.9132C99.9988 29.9922 99.7607 30.0449 99.4959 30.0976C99.2315 30.1504 98.9666 30.1767 98.7285 30.1767C97.3524 30.0976 96.6646 29.3597 96.6646 27.8838Z" fill="black"/>
<path d="M108.282 25.8809H102.619C102.698 27.673 103.571 28.5954 105.212 28.5954C105.609 28.5954 106.032 28.5427 106.456 28.4373C106.879 28.3319 107.276 28.2001 107.673 28.0419L108.096 29.386C107.117 29.8604 106.032 30.0976 104.842 30.0976C103.915 30.0976 103.148 29.9131 102.513 29.5705C101.878 29.2279 101.401 28.7272 101.084 28.0683C100.766 27.4094 100.607 26.6451 100.607 25.7227C100.607 24.774 100.766 23.957 101.11 23.2717C101.454 22.5865 101.904 22.0594 102.513 21.6904C103.121 21.3215 103.809 21.137 104.603 21.137C105.424 21.137 106.112 21.3215 106.641 21.7168C107.197 22.0858 107.594 22.6129 107.858 23.2454C108.123 23.8779 108.255 24.5895 108.255 25.3538V25.8809H108.282ZM106.35 24.6422C106.324 23.957 106.138 23.4299 105.821 23.0872C105.503 22.7446 105.106 22.5601 104.577 22.5601C104.074 22.5601 103.65 22.7446 103.333 23.0872C102.989 23.4299 102.777 23.957 102.671 24.6158H106.35V24.6422Z" fill="black"/>
<path d="M109.764 23.4824C109.764 23.008 109.737 22.2964 109.711 21.3213H111.563C111.59 21.5585 111.616 21.8484 111.643 22.191C111.669 22.5336 111.696 22.7971 111.696 23.008C111.934 22.639 112.145 22.3227 112.383 22.0592C112.595 21.7956 112.86 21.5848 113.151 21.4267C113.442 21.2685 113.786 21.1895 114.157 21.1895C114.474 21.1895 114.712 21.2158 114.951 21.2949L114.712 23.008C114.527 22.9553 114.316 22.9289 114.077 22.9289C113.601 22.9289 113.204 23.0343 112.86 23.2715C112.516 23.5087 112.145 23.904 111.748 24.4311V29.9657H109.79V23.4824H109.764Z" fill="black"/>
<path d="M116.063 33.4711C115.771 33.4184 115.533 33.3657 115.348 33.2866L115.718 31.8634C115.851 31.8898 116.009 31.9425 116.221 31.9689C116.433 31.9952 116.618 32.0216 116.803 32.0216C117.677 32.0216 118.338 31.4681 118.762 30.3349L118.894 30.0186L115.718 21.3479H117.835L119.449 26.1972C119.714 27.0142 119.873 27.673 119.952 28.0947C120.111 27.4622 120.27 26.856 120.482 26.2235L122.096 21.3215H124.081L120.905 30.045C120.614 30.862 120.27 31.5472 119.926 32.0479C119.582 32.5487 119.159 32.9176 118.708 33.1812C118.232 33.4184 117.677 33.5502 116.988 33.5502C116.671 33.5502 116.353 33.5238 116.063 33.4711Z" fill="black"/>
<path d="M42.5992 13.0464C42.1493 12.8092 41.8317 12.4402 41.5935 11.9922C41.3554 11.5442 41.2495 11.0171 41.2495 10.4109C41.2495 9.77836 41.3818 9.22491 41.62 8.75051C41.8582 8.27616 42.2287 7.90716 42.6785 7.66996C43.1549 7.40641 43.6842 7.27466 44.3193 7.27466C44.9279 7.27466 45.4308 7.40641 45.8804 7.64361C46.3038 7.88081 46.6482 8.24976 46.8863 8.69781C47.1243 9.14586 47.2302 9.67296 47.2302 10.2528C47.2302 10.8853 47.098 11.4387 46.8599 11.9131C46.6214 12.3875 46.2511 12.7565 45.8014 12.9937C45.3514 13.2572 44.7956 13.389 44.187 13.389C43.5783 13.4153 43.049 13.2836 42.5992 13.0464ZM45.2984 12.3084C45.5897 12.124 45.8014 11.8604 45.9599 11.5178C46.0921 11.1752 46.1716 10.7799 46.1716 10.3582C46.1716 9.93651 46.1189 9.54116 45.9863 9.22491C45.8541 8.88231 45.6692 8.61876 45.3779 8.43426C45.0867 8.22341 44.7427 8.14436 44.2928 8.14436C43.8694 8.14436 43.5254 8.24976 43.2343 8.43426C42.9432 8.64511 42.7315 8.90866 42.5727 9.25126C42.4139 9.59386 42.361 9.96286 42.361 10.3845C42.361 10.8062 42.4404 11.2015 42.5727 11.5442C42.705 11.8868 42.9167 12.1503 43.2078 12.3611C43.4989 12.572 43.8429 12.6511 44.2664 12.6511C44.6369 12.5983 45.0074 12.5193 45.2984 12.3084Z" fill="black"/>
<path d="M49.321 8.22297H47.4683L47.5478 7.35327H52.2318L52.1259 8.22297H50.3532V13.3358H49.321V8.22297Z" fill="black"/>
<path d="M57.7892 13.3363H56.6248L54.8516 10.7008H54.1374V13.3363H53.1052V7.38006H54.1374V9.83106H54.6667L55.9102 8.03896C56.0955 7.77541 56.2809 7.59091 56.4663 7.45916C56.6512 7.32736 56.8897 7.27466 57.1541 7.27466C57.3922 7.27466 57.6039 7.30101 57.7629 7.38006L57.5512 8.17071C57.4453 8.11801 57.3395 8.09166 57.2336 8.09166C57.101 8.09166 56.9951 8.11801 56.916 8.17071C56.8365 8.22341 56.7307 8.32886 56.6512 8.46061L55.5663 10.0156L57.7892 13.3363Z" fill="black"/>
<path d="M58.583 7.37939H60.1977C60.965 7.37939 61.547 7.53754 61.9441 7.85379C62.3411 8.17004 62.5528 8.61809 62.5528 9.19789C62.5528 9.5932 62.4733 9.93584 62.288 10.2257C62.1026 10.5156 61.8645 10.7528 61.5206 10.9109C61.2031 11.0691 60.8328 11.1481 60.4094 11.1481C60.1709 11.1481 59.9064 11.1218 59.6152 11.0691V13.3356H58.583V7.37939ZM61.1767 10.0412C61.3884 9.8304 61.4943 9.56685 61.4943 9.19789C61.4943 8.82894 61.3884 8.56539 61.1504 8.40724C60.9386 8.24914 60.5943 8.17004 60.1709 8.17004H59.6152V10.2784C59.8801 10.3311 60.065 10.3311 60.1977 10.3311C60.6211 10.3311 60.965 10.2257 61.1767 10.0412Z" fill="black"/>
<path d="M64.5373 13.0464C64.0875 12.8092 63.7699 12.4402 63.5319 11.9922C63.2934 11.5442 63.1875 11.0171 63.1875 10.4109C63.1875 9.77836 63.3202 9.22491 63.5582 8.75051C63.7963 8.27616 64.167 7.90716 64.6168 7.66996C65.0929 7.40641 65.6222 7.27466 66.2573 7.27466C66.8661 7.27466 67.369 7.40641 67.8188 7.64361C68.2422 7.88081 68.5862 8.24976 68.8247 8.69781C69.0627 9.14586 69.1686 9.67296 69.1686 10.2528C69.1686 10.8853 69.0364 11.4387 68.7979 11.9131C68.5598 12.3875 68.1895 12.7565 67.7393 12.9937C67.2895 13.2572 66.7339 13.389 66.1251 13.389C65.49 13.4153 64.9607 13.2836 64.5373 13.0464ZM67.21 12.3084C67.5013 12.124 67.713 11.8604 67.872 11.5178C68.0042 11.1752 68.0837 10.7799 68.0837 10.3582C68.0837 9.93651 68.0305 9.54116 67.8983 9.22491C67.7661 8.88231 67.5808 8.61876 67.2895 8.43426C66.9983 8.22341 66.6544 8.14436 66.2046 8.14436C65.7812 8.14436 65.4373 8.24976 65.1461 8.43426C64.8548 8.64511 64.6431 8.90866 64.4846 9.25126C64.3256 9.59386 64.2729 9.96286 64.2729 10.3845C64.2729 10.8062 64.3519 11.2015 64.4846 11.5442C64.6168 11.8868 64.8285 12.1503 65.1197 12.3611C65.4105 12.572 65.7548 12.6511 66.1783 12.6511C66.5749 12.5983 66.9193 12.5193 67.21 12.3084Z" fill="black"/>
<path d="M74.4082 13.3358V10.0678C74.4082 9.64616 74.4345 9.17176 74.4614 8.64466L71.4442 13.3358H70.3062V7.37966H71.2589V10.7794C71.2589 11.1484 71.2589 11.5437 71.2325 11.9918L74.1965 7.37966H75.3872V13.3358H74.4082ZM72.0794 6.85256C71.8676 6.74711 71.6823 6.58901 71.5764 6.40451C71.4706 6.22001 71.3915 6.03556 71.3647 5.82471H72.1057C72.1852 6.27271 72.4501 6.48356 72.8735 6.48356C73.2969 6.48356 73.5613 6.27271 73.6672 5.82471H74.4082C74.3818 6.03556 74.3023 6.22001 74.1965 6.40451C74.0906 6.58901 73.9053 6.72076 73.6936 6.85256C73.4818 6.98431 73.1911 7.03701 72.8735 7.03701C72.5823 7.03701 72.2911 6.95796 72.0794 6.85256Z" fill="black"/>
<path d="M78.1132 8.22297H76.2605L76.34 7.35327H80.9977L80.8918 8.22297H79.1186V13.3358H78.0869V8.22297H78.1132Z" fill="black"/>
<path d="M81.8708 7.37939H85.3909L85.2851 8.22279H82.9031V9.85679H85.1524V10.6474H82.9031V12.4659H85.4173L85.3378 13.3092H81.8708V7.37939Z" fill="black"/>
<path d="M92.642 10.3838C92.8537 10.5156 93.0123 10.6737 93.1445 10.9109C93.2771 11.1218 93.3298 11.3853 93.3298 11.6489C93.3298 11.9915 93.2503 12.2814 93.0918 12.5186C92.9327 12.7821 92.6683 12.9666 92.3508 13.0984C92.0332 13.2302 91.6361 13.3092 91.1863 13.3092H89.2278V7.37939H91.1068C91.742 7.37939 92.2186 7.51119 92.5361 7.74839C92.8537 7.98559 93.0123 8.32819 93.0123 8.74985C93.0123 9.09249 92.9064 9.40874 92.721 9.64594C92.5093 9.88314 92.2449 10.0412 91.9273 10.1467C92.1918 10.173 92.4303 10.2521 92.642 10.3838ZM90.26 9.80405H90.8951C91.1068 9.80405 91.2922 9.75134 91.4508 9.67229C91.6098 9.59324 91.742 9.46144 91.8215 9.32969C91.901 9.19789 91.9537 9.03979 91.9537 8.85529C91.9537 8.61809 91.8742 8.43359 91.6893 8.30184C91.5039 8.17004 91.2659 8.11734 90.9215 8.11734H90.2336V9.80405H90.26ZM91.98 12.3077C92.1918 12.1233 92.2976 11.8861 92.2976 11.5698C92.2976 11.2272 92.1918 10.99 91.9537 10.8055C91.7156 10.621 91.3981 10.542 90.9483 10.542H90.26V12.5449H91.0273C91.4508 12.5713 91.7683 12.4922 91.98 12.3077Z" fill="black"/>
<path fill-rule="evenodd" clip-rule="evenodd" d="M27.0915 7.40552H16.109C10.9221 7.40552 9.04321 9.30307 9.04321 14.4423V25.3795C9.04321 30.5451 10.9486 32.4163 16.109 32.4163H27.0915C32.2783 32.4163 34.1572 30.5187 34.1572 25.3795V14.4423C34.1837 9.30307 32.2783 7.40552 27.0915 7.40552Z" fill="#C8102E"/>
<path d="M14.0184 19.9246H14.68V23.1926H14.0184V21.8748H12.51V23.1926H11.8484V19.9246H12.51V21.2423H14.0184V19.9246ZM17.7762 21.7957C17.7762 22.3228 17.5116 22.6127 17.0352 22.6127C16.5589 22.6127 16.2943 22.3228 16.2943 21.7694V19.9246H15.6327V21.7957C15.6327 22.7182 16.1355 23.2453 17.0352 23.2453C17.935 23.2453 18.4643 22.7182 18.4643 21.7694V19.9246H17.8027V21.7957H17.7762ZM25.4772 22.1647L24.7362 19.9246H24.1804L23.4395 22.1647L22.7249 19.9246H22.0104L23.1484 23.1926H23.7041L24.4451 21.0315L25.1861 23.1926H25.7418L26.8797 19.9246H26.1917L25.4772 22.1647ZM28.0971 21.7957H29.3144V21.1896H28.0971V20.5307H29.8701V19.9246H27.4619V23.1926H29.9495V22.5864H28.1235V21.7957H28.0971ZM30.717 23.1926H31.3786V19.9246H30.717V23.1926ZM19.761 22.5073L19.4699 23.1926H18.7819L20.2109 19.9246H20.7931L22.2222 23.1926H21.5341L21.2694 22.5073H19.761ZM19.9992 21.9275H21.0048L20.502 20.7679L19.9992 21.9275Z" fill="white"/>
<path d="M21.6134 15.76C19.3111 15.76 17.4321 13.8888 17.4321 11.5959H18.0143C18.0143 13.5725 19.6286 15.1802 21.6134 15.1802C23.5982 15.1802 25.2125 13.5725 25.2125 11.5959H25.7947C25.7947 13.8888 23.9157 15.76 21.6134 15.76Z" fill="white"/>
</g>
<defs>
<clipPath id="clip0_143_964">
<rect width="133.115" height="39.98" fill="white" transform="translate(0.0273438)"/>
</clipPath>
</defs>
</svg>
