<svg width="134" height="40" viewBox="0 0 134 40" fill="none" xmlns="http://www.w3.org/2000/svg">
<g clip-path="url(#clip0_143_931)">
<path d="M123.312 0.157959H9.67738C9.30688 0.157959 8.96287 0.157959 8.59237 0.157959C8.30125 0.157959 7.98368 0.157959 7.6926 0.157959C7.03102 0.184314 6.3694 0.210669 5.7343 0.342443C5.07268 0.447863 4.46403 0.658699 3.88183 0.948604C3.29963 1.23851 2.77035 1.63383 2.29401 2.10822C1.81766 2.58261 1.44717 3.1097 1.1296 3.68951C0.81204 4.29567 0.626796 4.90181 0.52094 5.53436C0.415084 6.19321 0.362157 6.82576 0.335693 7.48461C0.335693 7.80086 0.335693 8.09076 0.335693 8.40701C0.335693 8.74966 0.335693 9.11861 0.335693 9.46121V30.387C0.335693 30.756 0.335693 31.0986 0.335693 31.4412C0.335693 31.7311 0.335693 32.0473 0.362157 32.3372C0.388621 32.9961 0.415084 33.655 0.547404 34.2875C0.653255 34.9464 0.864968 35.5525 1.15607 36.1323C1.44717 36.7121 1.84412 37.2392 2.32047 37.7136C2.79681 38.188 3.32609 38.557 3.90829 38.8732C4.51695 39.1895 5.12561 39.374 5.76075 39.4794C6.42232 39.5848 7.08395 39.6375 7.71904 39.6639C8.01017 39.6639 8.32773 39.6639 8.61882 39.6639C8.98931 39.6639 9.33332 39.6639 9.70382 39.6639H123.339C123.683 39.6639 124.053 39.6639 124.397 39.6639C124.688 39.6639 125.006 39.6639 125.297 39.6639C125.959 39.6375 126.62 39.6112 127.255 39.4794C127.917 39.374 128.526 39.1631 129.134 38.8732C129.716 38.5833 130.246 38.188 130.722 37.7136C131.198 37.2656 131.569 36.7121 131.887 36.1323C132.178 35.5525 132.39 34.92 132.495 34.2875C132.628 33.6286 132.654 32.9961 132.68 32.3372C132.68 32.0473 132.68 31.7311 132.68 31.4412C132.68 31.0986 132.68 30.7296 132.68 30.387V9.46121C132.68 9.09226 132.68 8.74966 132.68 8.40701C132.68 8.11711 132.68 7.80086 132.68 7.51096C132.654 6.85211 132.628 6.19321 132.495 5.56071C132.39 4.90181 132.178 4.29567 131.887 3.71587C131.595 3.13606 131.198 2.60896 130.722 2.13457C130.273 1.66018 129.716 1.29122 129.134 0.974959C128.526 0.685054 127.917 0.474219 127.255 0.368798C126.62 0.263379 125.959 0.210669 125.297 0.184314C125.006 0.184314 124.688 0.184314 124.397 0.184314C124.027 0.157959 123.683 0.157959 123.312 0.157959Z" fill="black"/>
<path d="M8.61907 38.8473C8.32794 38.8473 8.03686 38.8473 7.74578 38.8473C7.19001 38.8209 6.55487 38.7946 5.91978 38.6891C5.31109 38.5837 4.7818 38.3992 4.30548 38.1621C3.80267 37.8985 3.32632 37.5822 2.92937 37.1606C2.53241 36.7652 2.18838 36.3172 1.92375 35.7901C1.65911 35.2894 1.50033 34.7623 1.39447 34.1825C1.26216 33.5236 1.23569 32.8647 1.23569 32.364C1.23569 32.1531 1.20923 31.4679 1.20923 31.4679V8.40743C1.20923 8.40743 1.20923 7.72223 1.23569 7.53773C1.23569 7.03698 1.28862 6.35178 1.39447 5.71923C1.50033 5.11308 1.68558 4.58598 1.92375 4.08524C2.18838 3.5845 2.50595 3.11011 2.92937 2.71479C3.32632 2.31946 3.80267 1.97685 4.30548 1.7133C4.80829 1.44975 5.33757 1.29162 5.91978 1.1862C6.58136 1.08078 7.24294 1.02808 7.74578 1.02808H8.61907H124.398H125.297C125.8 1.02808 126.462 1.08078 127.123 1.1862C127.706 1.29162 128.235 1.47611 128.764 1.7133C129.267 1.97685 129.717 2.29311 130.14 2.71479C130.537 3.11011 130.881 3.55814 131.146 4.08524C131.411 4.58598 131.569 5.11308 131.675 5.69288C131.781 6.29903 131.834 6.93158 131.834 7.53773C131.834 7.80128 131.834 8.11753 131.834 8.40743C131.834 8.77638 131.834 9.11903 131.834 9.46163V30.3874C131.834 30.73 131.834 31.099 131.834 31.4416C131.834 31.7578 131.834 32.0477 131.834 32.3376C131.807 32.9174 131.781 33.55 131.675 34.1561C131.569 34.7623 131.411 35.2894 131.146 35.7901C130.881 36.2909 130.537 36.7652 130.14 37.1342C129.743 37.5295 129.267 37.8722 128.764 38.1357C128.261 38.3992 127.732 38.5574 127.123 38.6628C126.488 38.7682 125.853 38.7946 125.297 38.8209C125.006 38.8209 124.715 38.8209 124.424 38.8209H123.366L8.61907 38.8473Z" fill="white"/>
<path d="M13.9911 19.9246H14.6526V23.1926H13.9911V21.8748H12.4826V23.1926H11.821V19.9246H12.4826V21.2423H13.9911V19.9246ZM17.7489 21.7957C17.7489 22.3228 17.4843 22.6127 17.0079 22.6127C16.5316 22.6127 16.267 22.3228 16.267 21.7694V19.9246H15.6053V21.7957C15.6053 22.7182 16.1082 23.2453 17.0079 23.2453C17.9077 23.2453 18.437 22.7182 18.437 21.7694V19.9246H17.7754V21.7957H17.7489ZM25.4498 22.1647L24.7088 19.9246H24.1531L23.4121 22.1647L22.6976 19.9246H21.9831L23.121 23.1926H23.6767L24.4177 21.0315L25.1587 23.1926H25.7145L26.8524 19.9246H26.1644L25.4498 22.1647ZM28.0697 21.7957H29.2871V21.1896H28.0697V20.5307H29.8428V19.9246H27.4346V23.1926H29.9222V22.5864H28.0962V21.7957H28.0697ZM30.6897 23.1926H31.3512V19.9246H30.6897V23.1926ZM19.7337 22.5073L19.4426 23.1926H18.7545L20.1835 19.9246H20.7658L22.1948 23.1926H21.5067L21.2421 22.5073H19.7337ZM19.9718 21.9275H20.9775L20.4747 20.7679L19.9718 21.9275Z" fill="white"/>
<path d="M21.5861 15.76C19.2837 15.76 17.4048 13.8888 17.4048 11.5959H17.987C17.987 13.5725 19.6013 15.1802 21.5861 15.1802C23.5708 15.1802 25.1851 13.5725 25.1851 11.5959H25.7673C25.7673 13.8888 23.8884 15.76 21.5861 15.76Z" fill="white"/>
<path d="M45.5404 9.68308H46.4405C46.5954 9.70018 46.7527 9.68865 46.9024 9.6492C47.052 9.60976 47.1909 9.54326 47.3101 9.4539C47.4294 9.36454 47.5264 9.25425 47.5952 9.12999C47.664 9.00573 47.7029 8.87019 47.7097 8.73191C47.7097 8.18162 47.2425 7.82615 46.4504 7.82615C46.2917 7.80649 46.1301 7.81522 45.9752 7.85183C45.8203 7.88843 45.6753 7.95218 45.5487 8.03929C45.422 8.12641 45.3164 8.23513 45.238 8.35904C45.1595 8.48294 45.1099 8.61953 45.092 8.76072H44.1037C44.1207 8.50442 44.1971 8.25397 44.328 8.02496C44.459 7.79594 44.6417 7.59328 44.8648 7.42957C45.0879 7.26587 45.3467 7.14463 45.625 7.07341C45.9033 7.00219 46.1951 6.98251 46.4823 7.0156C47.8077 7.0156 48.7409 7.67331 48.7409 8.62009C48.744 8.93727 48.6243 9.24579 48.4017 9.49417C48.1792 9.74254 47.8672 9.91574 47.518 9.98484V10.0551C47.932 10.0714 48.3219 10.2323 48.6025 10.5027C48.8831 10.7731 49.0315 11.1309 49.0152 11.498C48.9846 11.7619 48.8948 12.0177 48.7512 12.2505C48.6076 12.4832 48.413 12.6882 48.1788 12.8534C47.9447 13.0186 47.6757 13.1408 47.3876 13.2126C47.0995 13.2845 46.7981 13.3047 46.5011 13.2719C46.2035 13.3079 45.9007 13.2904 45.6109 13.2204C45.3211 13.1505 45.0501 13.0295 44.8142 12.8647C44.5782 12.7 44.3821 12.4948 44.2375 12.2614C44.093 12.028 44.0029 11.7712 43.9727 11.5063H44.9763C45.0369 12.0771 45.6285 12.4453 46.5011 12.4453C47.3736 12.4453 47.9432 12.0318 47.9432 11.4487C47.9432 10.8574 47.4067 10.4932 46.4691 10.4932H45.5404V9.68308Z" fill="black"/>
<path d="M50.1555 11.854C50.1555 11.0434 50.8375 10.5762 52.045 10.5098L53.421 10.4394V10.0508C53.421 9.57519 53.0674 9.30664 52.381 9.30664C51.8213 9.30664 51.4346 9.48877 51.3222 9.80713H50.3516C50.4541 9.03369 51.276 8.5376 52.4284 8.5376C53.7019 8.5376 54.4203 9.0996 54.4203 10.0508V13.1274H53.4541V12.4946H53.3747C53.2137 12.7216 52.9876 12.9067 52.7196 13.0309C52.4515 13.1551 52.151 13.214 51.8489 13.2016C51.6356 13.2213 51.4201 13.2011 51.2161 13.1424C51.0122 13.0837 50.8244 12.9878 50.6649 12.8608C50.5053 12.7339 50.3776 12.5787 50.2898 12.4053C50.2021 12.2318 50.1564 12.044 50.1555 11.854ZM53.421 11.4692V11.0928L52.1804 11.1631C51.4808 11.2046 51.1635 11.4155 51.1635 11.8125C51.1635 12.2178 51.5602 12.4536 52.1055 12.4536C52.2653 12.4679 52.4268 12.4536 52.5802 12.4116C52.7337 12.3695 52.876 12.3005 52.9987 12.2086C53.1214 12.1168 53.2221 12.004 53.2946 11.877C53.3672 11.7499 53.4102 11.6113 53.421 11.4692Z" fill="black"/>
<path d="M57.0809 9.37256V13.1274H56.0784V8.62451H59.4232V9.37251L57.0809 9.37256Z" fill="black"/>
<path d="M65.4991 10.874C65.4991 12.3046 64.6828 13.2016 63.4004 13.2016C63.0856 13.2207 62.7712 13.1596 62.4942 13.0256C62.2172 12.8916 61.9892 12.6903 61.837 12.4453H61.7577V14.6245H60.7551V8.62447H61.7202V9.36864H61.7952C61.9501 9.11508 62.1811 8.90442 62.4626 8.75992C62.7441 8.61541 63.0652 8.54269 63.3904 8.54979C64.6827 8.54976 65.4991 9.44282 65.4991 10.874ZM64.4679 10.874C64.4679 9.92281 63.96 9.3481 63.1106 9.3481C62.2667 9.3481 61.739 9.93501 61.739 10.8779C61.739 11.8164 62.2667 12.4038 63.1062 12.4038C63.96 12.4038 64.4679 11.8291 64.4679 10.874Z" fill="black"/>
<path d="M66.8345 14.7402V13.9751C66.943 13.9873 67.0523 13.9929 67.1617 13.9917C67.3753 14.0057 67.5872 13.9493 67.7568 13.8334C67.9263 13.7174 68.0416 13.55 68.0805 13.3633L68.1554 13.144L66.3167 8.62451H67.4084L68.6821 12.2012H68.7614L70.0306 8.62451H71.0937L69.1999 13.3135C68.7658 14.4092 68.2855 14.7608 67.2499 14.7608C67.1661 14.7607 66.9281 14.7524 66.8345 14.7402Z" fill="black"/>
<path d="M71.8748 11.8495H72.8729C72.971 12.2465 73.3907 12.4535 73.9779 12.4535C74.6456 12.4535 75.0554 12.1927 75.0554 11.7875C75.0554 11.3534 74.6874 11.1464 73.9779 11.1464H73.2177V10.4559H73.9647C74.5707 10.4559 74.8791 10.2494 74.8791 9.87293C74.8791 9.54236 74.5806 9.28993 73.9647 9.28993C73.4039 9.28993 72.9941 9.50087 72.9291 9.85634H71.9629C72.0351 9.44788 72.2853 9.08086 72.6597 8.83423C73.034 8.58759 73.5026 8.48104 73.9647 8.53749C75.1722 8.53749 75.863 9.02138 75.863 9.78212C75.8686 9.99396 75.792 10.2011 75.646 10.3689C75.5001 10.5367 75.2935 10.655 75.0609 10.704V10.7743C75.3378 10.806 75.592 10.9266 75.7752 11.1134C75.9583 11.3002 76.0578 11.54 76.0547 11.7875C76.0547 12.6435 75.2328 13.2098 73.9779 13.2098C72.8685 13.2098 71.9673 12.7591 71.8748 11.8495Z" fill="black"/>
<path d="M77.4985 13.1274V8.62451H78.4923V11.7217H78.5716L80.9128 8.62452H81.9065V13.1275H80.9128V10.0137H80.8378L78.4923 13.1275L77.4985 13.1274Z" fill="black"/>
<path d="M87.3809 9.37251H85.7811V13.1274H84.7775V9.37251H83.1777V8.62451H87.3809V9.37251Z" fill="black"/>
<path d="M92.7813 11.9117C92.6447 12.3232 92.3494 12.6791 91.9468 12.9172C91.5443 13.1553 91.0602 13.2605 90.579 13.2144C90.2443 13.2223 89.9117 13.1654 89.6043 13.0479C89.2969 12.9304 89.022 12.755 88.7987 12.5338C88.5754 12.3127 88.4091 12.0511 88.3113 11.7673C88.2135 11.4835 88.1866 11.1842 88.2324 10.8902C88.1878 10.5953 88.2152 10.2954 88.3128 10.0107C88.4104 9.72605 88.5758 9.46328 88.7979 9.24021C89.02 9.01714 89.2936 8.83897 89.6001 8.71776C89.9066 8.59655 90.239 8.53514 90.5746 8.53767C91.9881 8.53767 92.8419 9.39367 92.8419 10.8077V11.1178H89.2548V11.1676C89.2389 11.3329 89.2622 11.4993 89.3232 11.6561C89.3842 11.8129 89.4815 11.9567 89.6089 12.0782C89.7363 12.1997 89.891 12.2962 90.063 12.3615C90.235 12.4269 90.4205 12.4596 90.6077 12.4576C90.8473 12.483 91.0901 12.4446 91.3051 12.3474C91.5201 12.2502 91.6976 12.0985 91.8152 11.9117L92.7813 11.9117ZM89.2547 10.4605H91.8195C91.8322 10.3095 91.8091 10.1578 91.7517 10.0151C91.6943 9.87242 91.6038 9.74198 91.4862 9.63213C91.3685 9.52228 91.2263 9.43545 91.0685 9.37723C90.9108 9.319 90.741 9.29066 90.5702 9.29403C90.3967 9.29194 90.2246 9.32069 90.0639 9.37858C89.9032 9.43646 89.7572 9.52232 89.6346 9.63106C89.5119 9.73981 89.4152 9.86924 89.3499 10.0117C89.2847 10.1542 89.2523 10.3068 89.2547 10.4605Z" fill="black"/>
<path d="M97.032 8.62451H99.3225C100.316 8.62451 100.899 9.0708 100.899 9.76951C100.901 9.99122 100.816 10.2067 100.66 10.3798C100.504 10.553 100.285 10.6733 100.041 10.7207V10.791C100.337 10.8076 100.616 10.9246 100.818 11.1178C101.02 11.311 101.131 11.5656 101.127 11.8291C101.127 12.6147 100.461 13.1274 99.3456 13.1274H97.032V8.62451ZM98.0257 9.30664V10.4726H99.0195C99.6254 10.4726 99.9152 10.2661 99.9152 9.88524C99.9152 9.53417 99.6629 9.30663 99.1308 9.30663L98.0257 9.30664ZM98.0257 11.126V12.4453H99.2145C99.8073 12.4453 100.125 12.2134 100.125 11.7876C100.125 11.3369 99.7654 11.126 99.0889 11.126L98.0257 11.126Z" fill="black"/>
<path d="M28.3324 19.0425C28.345 18.1746 28.6051 17.3235 29.0885 16.5686C29.5718 15.8137 30.2628 15.1794 31.097 14.7248C30.567 14.0539 29.8679 13.5018 29.0551 13.1123C28.2423 12.7228 27.3382 12.5067 26.4147 12.4811C24.4447 12.2978 22.5348 13.526 21.5309 13.526C20.5076 13.526 18.962 12.4993 17.2975 12.5296C16.221 12.5604 15.1717 12.8379 14.2521 13.3351C13.3325 13.8322 12.5738 14.532 12.0501 15.3663C9.78121 18.8483 11.4736 23.9657 13.647 26.7803C14.7344 28.1585 16.0052 29.698 17.6682 29.6435C19.2954 29.5836 19.9032 28.7237 21.8674 28.7237C23.8134 28.7237 24.3836 29.6435 26.0802 29.6087C27.8264 29.5836 28.9265 28.2244 29.9758 26.8331C30.7571 25.8511 31.3583 24.7657 31.7571 23.6172C30.7427 23.2369 29.877 22.6003 29.268 21.7868C28.6589 20.9733 28.3335 20.0189 28.3324 19.0425Z" fill="black"/>
<path d="M25.1278 10.6299C26.0799 9.61682 26.5489 8.31468 26.4354 7C24.9808 7.13541 23.6373 7.75161 22.6723 8.72582C22.2006 9.20174 21.8392 9.75542 21.609 10.3552C21.3788 10.955 21.2842 11.5891 21.3306 12.2213C22.0581 12.228 22.7778 12.0882 23.4356 11.8125C24.0933 11.5369 24.6719 11.1325 25.1278 10.6299Z" fill="black"/>
<path d="M47.8552 26.2928H42.5152L41.2328 29.6492H38.9709L44.0289 17.2312H46.3789L51.4369 29.6492H49.1365L47.8552 26.2928ZM43.0682 24.7439H47.3011L45.2144 19.2967H45.156L43.0682 24.7439Z" fill="black"/>
<path d="M62.3603 25.1228C62.3603 27.9363 60.6615 29.7439 58.0978 29.7439C57.4484 29.774 56.8025 29.6414 56.2341 29.3612C55.6658 29.0811 55.1979 28.6647 54.8841 28.1599H54.8356V32.6442H52.739V20.5954H54.7684V22.1013H54.8069C55.1352 21.5988 55.611 21.1846 56.1836 20.9028C56.7563 20.6209 57.4045 20.482 58.0592 20.5007C60.6516 20.5007 62.3603 22.3171 62.3603 25.1228ZM60.2054 25.1228C60.2054 23.2898 59.1367 22.0847 57.5062 22.0847C55.9043 22.0847 54.8268 23.3152 54.8268 25.1228C54.8268 26.947 55.9043 28.1687 57.5062 28.1687C59.1367 28.1687 60.2054 26.9724 60.2054 25.1228Z" fill="black"/>
<path d="M73.6028 25.1228C73.6028 27.9363 71.9034 29.7439 69.3397 29.7439C68.6903 29.774 68.0444 29.6414 67.4761 29.3612C66.9077 29.0811 66.4398 28.6647 66.126 28.1599H66.0775V32.6442H63.981V20.5954H66.0103V22.1013H66.0489C66.3771 21.5988 66.8529 21.1846 67.4256 20.9028C67.9983 20.6209 68.6464 20.482 69.3011 20.5007C71.8935 20.5007 73.6028 22.3171 73.6028 25.1228ZM71.4473 25.1228C71.4473 23.2898 70.3787 22.0847 68.7481 22.0847C67.1462 22.0847 66.0687 23.3152 66.0687 25.1228C66.0687 26.947 67.1462 28.1687 68.7481 28.1687C70.3787 28.1687 71.4473 26.9724 71.4473 25.1228Z" fill="black"/>
<path d="M81.0317 26.1893C81.187 27.4207 82.5367 28.2293 84.3809 28.2293C86.1481 28.2293 87.4194 27.4207 87.4194 26.3103C87.4194 25.3464 86.6527 24.7693 84.837 24.3738L83.0214 23.9861C80.4489 23.4353 79.2546 22.3689 79.2546 20.6384C79.2546 18.4958 81.3611 17.0242 84.3512 17.0242C87.3126 17.0242 89.342 18.4958 89.4103 20.6384H87.2938C87.1672 19.3992 86.0114 18.6511 84.3225 18.6511C82.6336 18.6511 81.4779 19.408 81.4779 20.5095C81.4779 21.3875 82.216 21.9041 84.0217 22.2995L85.5652 22.6355C88.4396 23.238 89.6328 24.2615 89.6328 26.0779C89.6328 28.4011 87.5461 29.8562 84.2255 29.8562C81.1187 29.8562 79.021 28.4353 78.8855 26.1892L81.0317 26.1893Z" fill="black"/>
<path d="M94.1597 18.4529V20.5955H96.102V22.0671H94.1597V27.0583C94.1597 27.8337 94.5486 28.1951 95.4024 28.1951C95.633 28.1915 95.8632 28.1772 96.0921 28.1521V29.615C95.7082 29.6785 95.3181 29.7073 94.9276 29.7009C92.8597 29.7009 92.0532 29.0124 92.0532 27.2566V22.0671H90.5681V20.5955H92.0532V18.4529H94.1597Z" fill="black"/>
<path d="M97.2258 25.1228C97.2258 22.2742 99.1186 20.4841 102.07 20.4841C105.031 20.4841 106.915 22.2741 106.915 25.1228C106.915 27.9793 105.041 29.7615 102.07 29.7615C99.0998 29.7615 97.2258 27.9792 97.2258 25.1228ZM104.779 25.1228C104.779 23.1687 103.769 22.0154 102.07 22.0154C100.371 22.0154 99.3609 23.1775 99.3609 25.1228C99.3609 27.0847 100.371 28.2292 102.07 28.2292C103.769 28.2292 104.779 27.0847 104.779 25.1228Z" fill="black"/>
<path d="M108.644 20.5956H110.644V22.1366H110.692C110.827 21.6553 111.146 21.23 111.593 20.9321C112.04 20.6342 112.59 20.4819 113.149 20.5008C113.391 20.5001 113.632 20.5234 113.867 20.5702V22.3085C113.562 22.2258 113.244 22.1879 112.925 22.1962C112.621 22.1852 112.317 22.2328 112.035 22.3357C111.753 22.4386 111.5 22.5943 111.292 22.7922C111.085 22.9901 110.928 23.2255 110.833 23.4821C110.738 23.7388 110.706 24.0107 110.741 24.2792V29.6493H108.644L108.644 20.5956Z" fill="black"/>
<path d="M123.534 26.99C123.252 28.6335 121.446 29.7615 119.136 29.7615C116.164 29.7615 114.32 27.9968 114.32 25.1658C114.32 22.3259 116.174 20.4841 119.048 20.4841C121.873 20.4841 123.651 22.2048 123.651 24.9499V25.5867H116.436V25.699C116.403 26.0322 116.45 26.3678 116.575 26.6837C116.699 26.9995 116.898 27.2883 117.157 27.5308C117.417 27.7734 117.732 27.9642 118.082 28.0905C118.431 28.2168 118.807 28.2757 119.184 28.2634C119.68 28.3046 120.177 28.2029 120.602 27.9734C121.027 27.744 121.357 27.3991 121.543 26.99L123.534 26.99ZM116.446 24.2878H121.553C121.572 23.9882 121.52 23.6884 121.402 23.4072C121.284 23.126 121.102 22.8695 120.867 22.6537C120.631 22.4379 120.348 22.2676 120.035 22.1534C119.722 22.0392 119.386 21.9835 119.048 21.99C118.706 21.9882 118.368 22.0463 118.052 22.1611C117.736 22.2758 117.449 22.4449 117.207 22.6585C116.965 22.8721 116.773 23.1261 116.643 23.4058C116.512 23.6854 116.445 23.9852 116.446 24.2878Z" fill="black"/>
</g>
<defs>
<clipPath id="clip0_143_931">
<rect width="133.115" height="39.98" fill="white"/>
</clipPath>
</defs>
</svg>
