<svg width="1229" height="81" viewBox="0 0 1229 81" fill="none" xmlns="http://www.w3.org/2000/svg">
<path fill-rule="evenodd" clip-rule="evenodd" d="M580.389 28.5299C580.172 25.5084 577.898 22.4541 573.056 18.6943V18.6921C573.283 18.1888 573.399 16.1233 570.985 14.8854C564.909 11.7754 551.861 8.50111 542.059 8C542.155 8.25427 542.384 8.9643 542.547 9.49292C530.865 8.97099 518.953 9.53456 510.132 10.3695C507.18 10.649 498 11.8743 498 11.8743L518.741 20.4504C516.527 20.9337 514.28 21.4549 512.019 22.0214C509.711 22.6021 502.876 24.8535 502.876 24.8535C502.876 24.8535 508.946 26.1337 511.167 26.6006C515.295 27.4676 526.936 29.8726 531.905 30.9812C531.248 32.9455 526.969 46.5477 526.969 46.5477C526.969 46.5477 532.511 40.8814 534.232 39.2986C536.419 37.2852 537.143 36.602 537.799 36.0808C537.547 38.9774 536.989 45.1952 536.846 46.7275C536.731 47.9505 536.979 49.2204 537.712 49.9625C538.411 50.6687 539.632 51.0071 540.706 50.8926C541.584 50.7981 542.671 50.2101 543.466 49.5759C546.806 46.9083 555.171 39.6957 562.246 33.0615C562.644 33.0035 563.041 32.95 563.44 32.9091C568.295 32.3893 572.998 33.1373 573.801 35.4845C574.327 37.0265 573.786 37.976 573.296 39.4518C574.13 38.6845 576.28 36.7692 577.12 35.7514C578.488 34.0971 580.603 31.5269 580.389 28.5299Z" fill="black"/>
<path fill-rule="evenodd" clip-rule="evenodd" d="M542.46 16.5573C542.492 16.5544 542.524 16.5499 542.555 16.5469C542.268 16.0101 542.026 15.454 541.809 15.0488C545.787 14.5871 555 15.0488 558.677 17.3254C562.355 19.6012 565.695 20.3818 568.21 19.8383C567.986 20.4636 567.084 21.2071 567.084 21.2071C566.209 21.3885 565.281 21.4435 564.231 21.2911C563.192 22.9543 560.633 22.7491 556.598 24.7171C552.289 26.8197 545.866 30.2999 540.322 34.1602C540.159 36.0925 539.811 39.8494 539.763 40.4345L547.761 37.6203L546.147 36.2925L552.974 34.7758C554.08 33.045 562.539 25.115 563.878 24.1521C564.424 24.0458 564.878 23.9573 565.239 23.9298C566.997 22.4175 568.966 20.9967 571.076 19.9365C571.112 19.8205 571.145 19.7068 571.163 19.5997C571.285 18.8897 571.232 17.8599 570.27 17.3722C554 9.13436 523.904 11.7938 507.697 13.0659L522.981 19.5692C530.296 18.1172 537.06 17.1335 542.46 16.5573Z" fill="#BFBD9C"/>
<path fill-rule="evenodd" clip-rule="evenodd" d="M546.146 36.2923L547.762 37.6202L539.763 40.4342C539.763 40.4342 539.334 45.4512 539.221 46.6334C539.071 48.2371 540.476 48.7324 541.809 47.6691C544.779 45.2936 551.696 39.4713 558.143 33.6292L546.146 36.2923Z" fill="#6F7757"/>
<path fill-rule="evenodd" clip-rule="evenodd" d="M560.416 22.2351C557.381 22.7042 555.919 20.6336 555.65 18.4492C554.56 18.2738 553.473 18.1719 552.494 18.0879C552.445 20.8269 554.359 23.812 558.968 23.1384C560.678 22.8901 561.499 22.3265 561.874 21.7459C561.525 21.9607 561.059 22.1377 560.416 22.2351Z" fill="#FEFEFE"/>
<path fill-rule="evenodd" clip-rule="evenodd" d="M567.99 24.162C567.99 24.162 568.297 23.3501 569.536 22.7985C571.395 23.5925 572.237 24.6832 572.237 24.6832L567.99 24.162ZM571.076 19.936C564.733 23.1211 559.629 29.5754 557.862 31.924C563.098 30.2787 573.913 29.3835 575.659 34.5151C578.528 30.8914 581.423 27.7412 571.076 19.936Z" fill="#F2F2D9"/>
<path fill-rule="evenodd" clip-rule="evenodd" d="M533.362 23.9775L546.613 22.5485L539.455 27.6571L539.609 25.5731L533.362 23.9775ZM553.453 23.8466C551.28 22.6645 550.585 20.353 550.822 18.1909H550.817C547.345 18.4474 528.668 19.8764 511.782 24.2259C517.235 25.1469 534.942 29.147 534.942 29.147C534.942 29.147 533.004 34.7231 532.005 38.2718C538.467 32.7662 542.739 29.5246 553.453 23.8466Z" fill="#FF0000"/>
<path fill-rule="evenodd" clip-rule="evenodd" d="M659.699 42.7481L662.49 28.645H676.036L673.92 31.8137H666.139L664.428 40.456C664.164 41.7869 662.972 42.7481 661.584 42.7481H659.699Z" fill="white"/>
<path fill-rule="evenodd" clip-rule="evenodd" d="M588.238 37.5818L591.758 32.0487H592.242L593.667 37.5818H588.238ZM595.565 28.6445H586.482C586.452 28.7218 586.423 28.8036 586.396 28.8803C587.312 29.2177 588.636 29.9219 587.947 31.0311L580.12 42.7478H583.342C584.343 42.7478 585.274 42.2429 585.803 41.4116L586.411 40.4555H594.408L594.998 42.7478H599.508L595.565 28.6445Z" fill="white"/>
<path fill-rule="evenodd" clip-rule="evenodd" d="M626.968 37.5818L630.489 32.0487H630.972L632.398 37.5818H626.968ZM634.295 28.6445H625.254C625.225 28.7218 625.195 28.8036 625.167 28.8803C626.016 29.1925 627.211 29.82 626.836 30.7925L618.85 42.7478H622.072C623.073 42.7478 624.004 42.2429 624.532 41.4116L625.141 40.4555H633.137L633.727 42.7478H638.238L634.295 28.6445Z" fill="white"/>
<path fill-rule="evenodd" clip-rule="evenodd" d="M679.658 37.5818L683.177 32.0487H683.662L685.086 37.5818H679.658ZM686.986 28.6445H677.91C677.882 28.7218 677.852 28.8036 677.825 28.8803C678.723 29.2111 680.01 29.8958 679.407 30.9694L671.54 42.7478H674.76C675.763 42.7478 676.693 42.2429 677.222 41.411L677.829 40.4555H685.827L686.418 42.7478H690.927L686.986 28.6445Z" fill="white"/>
<mask id="mask0_143_926" style="mask-type:alpha" maskUnits="userSpaceOnUse" x="707" y="28" width="24" height="18">
<path fill-rule="evenodd" clip-rule="evenodd" d="M707.88 28.6445H731V45.04H707.88V28.6445Z" fill="white"/>
</mask>
<g mask="url(#mask0_143_926)">
<path fill-rule="evenodd" clip-rule="evenodd" d="M723.806 39.8735H716.228L719.686 31.5189H725.458L723.806 39.8735ZM728.082 39.8735L730.306 28.6445H713.784C713.755 28.7218 713.726 28.8036 713.698 28.8803C714.592 29.2089 715.657 29.8095 715.276 30.9464L711.584 39.8735H708.902L707.88 45.04H709.765C711.152 45.04 712.344 44.0786 712.609 42.7478H726.155L725.702 45.04H729.976L731 39.8735H728.082Z" fill="white"/>
</g>
<path fill-rule="evenodd" clip-rule="evenodd" d="M614.295 33.7429C613.933 34.151 613.423 34.3577 612.779 34.3577H607.029L607.609 31.4625H613.254C614.246 31.4625 614.749 31.8455 614.749 32.6001C614.749 33.0121 614.588 33.418 614.295 33.7429ZM613.717 39.2586C613.3 39.7308 612.728 39.9613 611.967 39.9613H605.924L606.565 36.7381H612.504C612.911 36.7381 614.149 36.7381 614.149 37.9628C614.149 38.5054 614.008 38.9293 613.717 39.2586ZM617.035 35.2757L616.761 35.1991L616.812 35.0021L617.078 34.9381C617.747 34.7768 618.316 34.3545 618.609 34.0371C619.221 33.3754 619.579 32.6348 619.579 31.5405C619.579 29.1472 617.252 28.6445 615.298 28.6445H601.95C601.92 28.7218 601.89 28.8036 601.863 28.8803C602.776 29.2163 603.656 29.762 603.416 31.0192L601.094 42.7478H613.086C615.215 42.7478 616.735 42.2236 617.733 41.1441C618.474 40.3463 618.85 39.2713 618.85 37.947C618.85 36.6244 618.24 35.6318 617.035 35.2757Z" fill="white"/>
<path fill-rule="evenodd" clip-rule="evenodd" d="M655.129 28.6445L654.068 33.9613H645.848L646.909 28.6445H640.691C640.662 28.7218 640.632 28.8036 640.605 28.8803C641.52 29.2177 642.406 29.765 642.156 31.0311L639.824 42.7478H641.716C643.101 42.7478 644.293 41.7894 644.559 40.4615L645.223 37.1434L653.444 37.1233L652.322 42.7478H656.599L659.406 28.6445H655.129Z" fill="white"/>
<path fill-rule="evenodd" clip-rule="evenodd" d="M705.642 34.3815C705.349 34.7703 704.772 35.2335 703.694 35.2335H698.279L698.984 31.7182H704.293C705.484 31.7182 706.088 32.1614 706.088 33.0357C706.088 33.3221 706.03 33.878 705.642 34.3815ZM706.024 28.645H693.368C693.339 28.7223 693.309 28.8041 693.281 28.8806C694.197 29.2174 695.083 29.7653 694.834 31.0316L692.515 42.7481H694.4C695.788 42.7481 696.982 41.7854 697.244 40.453L697.721 38.0359H704.358C706.794 38.0359 708.516 37.4188 709.624 36.1489C710.48 35.1639 710.915 33.8316 710.915 32.1884C710.915 29.7707 709.362 28.645 706.024 28.645Z" fill="white"/>
<path fill-rule="evenodd" clip-rule="evenodd" d="M590.577 20.6547L591.789 19.2391H593.142L591.151 21.4784L592.468 23.9491L591.147 23.9453L590.294 22.274L588.862 23.9453H587.527L589.737 21.468L588.564 19.2361L589.883 19.2391L590.577 20.6547Z" fill="white"/>
<path fill-rule="evenodd" clip-rule="evenodd" d="M594.468 21.8276C594.468 22.0128 594.499 22.183 594.561 22.3384C594.622 22.4938 594.708 22.6291 594.821 22.7451C594.933 22.8603 595.067 22.9503 595.221 23.015C595.376 23.0797 595.545 23.1116 595.73 23.1116C595.887 23.1116 596.042 23.0908 596.194 23.0492C596.345 23.0075 596.488 22.9488 596.622 22.873C596.757 22.7971 596.881 22.705 596.994 22.5979C597.108 22.4901 597.206 22.3719 597.288 22.241C597.371 22.1109 597.435 21.9711 597.481 21.8209C597.528 21.6708 597.551 21.5139 597.551 21.3503C597.551 21.1659 597.519 20.9949 597.457 20.838C597.394 20.6812 597.307 20.5459 597.196 20.4314C597.085 20.3176 596.952 20.2276 596.796 20.163C596.64 20.0983 596.469 20.0663 596.282 20.0663C596.048 20.0663 595.822 20.1124 595.606 20.2024C595.388 20.2938 595.195 20.4187 595.026 20.5763C594.857 20.7347 594.722 20.9213 594.621 21.1354C594.519 21.3503 594.468 21.5808 594.468 21.8276ZM593.338 21.925C593.338 21.6707 593.378 21.4246 593.457 21.1875C593.536 20.9496 593.647 20.7272 593.788 20.5198C593.93 20.3116 594.099 20.1228 594.294 19.9503C594.488 19.7786 594.701 19.6314 594.931 19.5094C595.161 19.3867 595.405 19.2923 595.662 19.2239C595.92 19.1555 596.184 19.1221 596.452 19.1221C596.778 19.1221 597.078 19.1763 597.35 19.2864C597.624 19.3957 597.858 19.5459 598.055 19.7362C598.253 19.9258 598.406 20.1503 598.516 20.409C598.626 20.667 598.681 20.9451 598.681 21.2425C598.681 21.4968 598.641 21.7421 598.561 21.98C598.481 22.2179 598.369 22.441 598.227 22.6492C598.086 22.8581 597.917 23.0484 597.722 23.2209C597.528 23.3927 597.315 23.5399 597.083 23.6633C596.852 23.7875 596.608 23.8826 596.35 23.951C596.092 24.0187 595.83 24.0529 595.563 24.0529C595.238 24.0529 594.938 23.9979 594.666 23.8886C594.392 23.7793 594.158 23.6283 593.962 23.4373C593.766 23.2454 593.613 23.0202 593.503 22.76C593.393 22.5005 593.338 22.2224 593.338 21.925Z" fill="white"/>
<path fill-rule="evenodd" clip-rule="evenodd" d="M600.909 21.5959L603.197 19.2397H604.5L602.432 21.3364L603.724 23.946H602.4L601.557 22.1431L600.642 23.0672L600.483 23.946H599.36L600.211 19.2397H601.334L600.909 21.5959Z" fill="white"/>
<path fill-rule="evenodd" clip-rule="evenodd" d="M606.196 21.5959L608.485 19.2397H609.789L607.72 21.3364L609.013 23.946H607.688L606.845 22.1431L605.93 23.0672L605.771 23.946H604.648L605.499 19.2397H606.621L606.196 21.5959Z" fill="white"/>
<path fill-rule="evenodd" clip-rule="evenodd" d="M610.785 19.2393H614.179L614.008 20.1842H611.738L611.561 21.1463H613.51L613.343 22.0876H611.392L611.225 23.0043H613.53L613.361 23.9456H609.935L610.785 19.2393Z" fill="white"/>
<path fill-rule="evenodd" clip-rule="evenodd" d="M619.092 17.6548C619.053 17.802 618.996 17.9388 618.917 18.0644C618.841 18.1908 618.742 18.2986 618.626 18.3901C618.509 18.4808 618.373 18.5522 618.218 18.6027C618.063 18.6533 617.892 18.6786 617.703 18.6786C617.514 18.6786 617.351 18.6533 617.215 18.6027C617.08 18.5522 616.97 18.4808 616.887 18.3901C616.802 18.2986 616.744 18.1908 616.71 18.0644C616.677 17.9388 616.668 17.802 616.683 17.6548L617.433 17.6064C617.445 17.6592 617.459 17.7068 617.476 17.7477C617.492 17.7901 617.515 17.825 617.543 17.854C617.572 17.883 617.609 17.9038 617.654 17.9187C617.701 17.9343 617.76 17.9418 617.834 17.9418C617.907 17.9418 617.969 17.9343 618.02 17.9187C618.07 17.9038 618.115 17.883 618.155 17.854C618.193 17.825 618.228 17.7901 618.258 17.7477C618.289 17.7068 618.321 17.6592 618.354 17.6064L619.092 17.6548ZM615.407 19.2393H616.523L616.013 22.0534L618.823 19.2393H619.8L618.95 23.9455H617.827L618.337 21.1255L615.527 23.9455H614.557L615.407 19.2393Z" fill="white"/>
<path fill-rule="evenodd" clip-rule="evenodd" d="M621.224 19.2393H622.347L622 21.1463H624.101L624.447 19.2393H625.574L624.724 23.9456H623.597L623.931 22.0876H621.829L621.496 23.9456H620.374L621.224 19.2393Z" fill="white"/>
<path fill-rule="evenodd" clip-rule="evenodd" d="M630.394 23.9457H631.517L632.368 19.2395H631.244L630.394 23.9457ZM628.59 21.6239H627.681L627.428 23.0046H628.343C628.443 23.0046 628.543 22.983 628.64 22.9391C628.736 22.8953 628.822 22.8365 628.897 22.7622C628.972 22.6886 629.031 22.6031 629.076 22.5064C629.12 22.4098 629.143 22.3079 629.143 22.2016C629.143 22.1183 629.13 22.0417 629.103 21.9719C629.076 21.9012 629.037 21.8403 628.988 21.7882C628.941 21.7362 628.883 21.696 628.814 21.6678C628.746 21.638 628.671 21.6239 628.59 21.6239ZM628.825 20.6824C629.046 20.6824 629.248 20.7158 629.427 20.7827C629.607 20.8497 629.76 20.9433 629.886 21.063C630.013 21.1828 630.109 21.327 630.179 21.4935C630.247 21.6615 630.281 21.8459 630.281 22.0497C630.281 22.3173 630.226 22.5671 630.118 22.7983C630.009 23.0303 629.862 23.231 629.676 23.4006C629.489 23.5701 629.27 23.7032 629.019 23.8006C628.769 23.8972 628.503 23.9456 628.219 23.9456H626.14L626.989 19.2393H628.113L627.851 20.6824H628.825Z" fill="white"/>
<path fill-rule="evenodd" clip-rule="evenodd" d="M637.539 17.6548C637.501 17.802 637.444 17.9388 637.366 18.0644C637.288 18.1908 637.191 18.2986 637.074 18.3901C636.956 18.4808 636.822 18.5522 636.666 18.6027C636.511 18.6533 636.34 18.6786 636.151 18.6786C635.962 18.6786 635.799 18.6533 635.663 18.6027C635.527 18.5522 635.418 18.4808 635.335 18.3901C635.25 18.2986 635.192 18.1908 635.159 18.0644C635.126 17.9388 635.116 17.802 635.131 17.6548L635.881 17.6064C635.894 17.6592 635.907 17.7068 635.924 17.7477C635.94 17.7901 635.963 17.825 635.992 17.854C636.02 17.883 636.057 17.9038 636.103 17.9187C636.149 17.9343 636.209 17.9418 636.282 17.9418C636.355 17.9418 636.417 17.9343 636.468 17.9187C636.519 17.9038 636.563 17.883 636.603 17.854C636.641 17.825 636.676 17.7901 636.707 17.7477C636.738 17.7068 636.77 17.6592 636.803 17.6064L637.539 17.6548ZM633.855 19.2393H634.971L634.461 22.0534L637.27 19.2393H638.248L637.398 23.9455H636.275L636.785 21.1255L633.976 23.9455H633.005L633.855 19.2393Z" fill="white"/>
<path fill-rule="evenodd" clip-rule="evenodd" d="M642.372 21.5959L644.661 19.2397H645.964L643.895 21.3364L645.188 23.946H643.863L643.02 22.1431L642.105 23.0672L641.946 23.946H640.823L641.674 19.2397H642.797L642.372 21.5959Z" fill="white"/>
<path fill-rule="evenodd" clip-rule="evenodd" d="M650.376 20.1842H648.421L648.108 21.9255L648.091 22.0259L647.956 22.7552C647.914 22.9909 647.835 23.1909 647.721 23.356C647.606 23.521 647.473 23.6548 647.318 23.7589C647.164 23.863 646.998 23.9381 646.817 23.9857C646.636 24.0333 646.459 24.0563 646.287 24.0563C646.198 24.0563 646.115 24.0519 646.042 24.0429C645.967 24.0333 645.902 24.0221 645.848 24.0087L646.203 23.098C646.21 23.098 646.224 23.0995 646.243 23.1017C646.264 23.1039 646.285 23.1061 646.309 23.1091C646.332 23.1113 646.355 23.1128 646.378 23.1136C646.4 23.1151 646.415 23.1151 646.423 23.1151C646.533 23.1151 646.625 23.0809 646.697 23.0117C646.769 22.9426 646.818 22.8385 646.843 22.7002L646.985 21.9218L647.471 19.2393H651.661L650.812 23.9463H649.695L650.376 20.1842Z" fill="white"/>
<path fill-rule="evenodd" clip-rule="evenodd" d="M652.708 23.1084C652.713 23.1084 652.725 23.1091 652.745 23.1113C652.765 23.1136 652.787 23.1151 652.811 23.1166C652.834 23.118 652.857 23.1188 652.88 23.1203C652.902 23.1218 652.917 23.1218 652.924 23.1218C652.993 23.1218 653.058 23.1106 653.121 23.089C653.183 23.0675 653.235 23.0251 653.275 22.9626L653.629 22.4504L652.598 19.2393H653.831L654.444 21.2913L655.805 19.2393H657.037L654.239 23.35C654.151 23.4749 654.052 23.582 653.939 23.6719C653.827 23.7619 653.707 23.8363 653.581 23.8935C653.454 23.9515 653.325 23.9939 653.188 24.0221C653.052 24.0496 652.919 24.063 652.789 24.063C652.7 24.063 652.618 24.0585 652.543 24.0496C652.469 24.04 652.404 24.0288 652.35 24.0147L652.708 23.1084Z" fill="white"/>
<path fill-rule="evenodd" clip-rule="evenodd" d="M658.62 21.8868L658.418 23.0013H659.207C659.302 23.0013 659.394 22.9864 659.482 22.9574C659.57 22.9292 659.649 22.8868 659.717 22.8303C659.782 22.773 659.839 22.7046 659.879 22.6236C659.921 22.5433 659.941 22.4511 659.941 22.347C659.941 22.2712 659.927 22.2043 659.898 22.1485C659.871 22.092 659.832 22.0437 659.784 22.005C659.737 21.9649 659.683 21.9359 659.617 21.9165C659.553 21.8965 659.484 21.8868 659.41 21.8868H658.62ZM659.623 20.9456C659.858 20.9456 660.067 20.9783 660.25 21.043C660.432 21.1076 660.584 21.1969 660.706 21.3114C660.828 21.4251 660.922 21.5597 660.984 21.7143C661.047 21.8682 661.078 22.0348 661.078 22.2125C661.078 22.3872 661.053 22.5522 661.002 22.7054C660.952 22.8586 660.882 22.9998 660.79 23.1277C660.698 23.2556 660.591 23.3708 660.464 23.4719C660.337 23.5738 660.2 23.6593 660.051 23.7299C659.903 23.7998 659.744 23.8541 659.577 23.8905C659.408 23.9277 659.238 23.9463 659.063 23.9463H657.125L657.975 19.2393H661.253L661.082 20.1813H658.928L658.789 20.9456H659.623Z" fill="white"/>
</svg>
