<svg width="135" height="40" viewBox="0 0 135 40" fill="none" xmlns="http://www.w3.org/2000/svg">
<g clip-path="url(#clip0_143_989)">
<g clip-path="url(#clip1_143_989)">
<path d="M129.5 0.5H5.5C2.73858 0.5 0.5 2.73858 0.5 5.5V34.5C0.5 37.2614 2.73858 39.5 5.5 39.5H129.5C132.261 39.5 134.5 37.2614 134.5 34.5V5.5C134.5 2.73858 132.261 0.5 129.5 0.5Z" fill="black" stroke="#666666"/>
<path d="M68.14 21.7501C67.3003 21.7541 66.4806 22.0067 65.7843 22.4761C65.088 22.9455 64.5464 23.6106 64.2278 24.3875C63.9092 25.1644 63.8279 26.0183 63.9941 26.8414C64.1603 27.6645 64.5667 28.4199 65.1618 29.0123C65.757 29.6047 66.5143 30.0075 67.3382 30.1699C68.162 30.3322 69.0155 30.2469 69.791 29.9247C70.5664 29.6024 71.229 29.0577 71.6951 28.3592C72.1612 27.6607 72.41 26.8398 72.41 26.0001C72.4181 25.4381 72.3131 24.8801 72.1012 24.3595C71.8892 23.8388 71.5746 23.3662 71.1762 22.9696C70.7778 22.5731 70.3037 22.2607 69.7821 22.0512C69.2604 21.8417 68.702 21.7393 68.14 21.7501ZM68.14 28.5801C67.6236 28.6162 67.1082 28.4962 66.6609 28.2355C66.2137 27.9748 65.8552 27.5857 65.632 27.1186C65.4088 26.6514 65.3314 26.128 65.4097 25.6163C65.4879 25.1045 65.7184 24.6282 66.0709 24.2492C66.4235 23.8701 66.882 23.6059 67.3867 23.4909C67.8915 23.3759 68.4192 23.4154 68.9012 23.6042C69.3832 23.7931 69.7972 24.1225 70.0895 24.5498C70.3818 24.9771 70.5387 25.4824 70.54 26.0001C70.5561 26.3281 70.5063 26.6561 70.3937 26.9645C70.2811 27.273 70.1078 27.5558 69.8841 27.7963C69.6604 28.0368 69.3909 28.23 69.0913 28.3646C68.7918 28.4992 68.4683 28.5725 68.14 28.5801ZM58.83 21.7501C57.9898 21.7521 57.1691 22.003 56.4715 22.4712C55.7739 22.9394 55.2308 23.6039 54.9106 24.3806C54.5905 25.1574 54.5077 26.0116 54.6729 26.8354C54.838 27.6591 55.2435 28.4155 55.8383 29.0088C56.4331 29.6022 57.1904 30.006 58.0145 30.1692C58.8387 30.3323 59.6927 30.2476 60.4687 29.9256C61.2447 29.6037 61.9079 29.0589 62.3744 28.3602C62.841 27.6616 63.09 26.8403 63.09 26.0001C63.0981 25.4381 62.9931 24.8801 62.7811 24.3595C62.5692 23.8388 62.2546 23.3662 61.8562 22.9696C61.4578 22.5731 60.9837 22.2607 60.4621 22.0512C59.9404 21.8417 59.382 21.7393 58.82 21.7501H58.83ZM58.83 28.5801C58.3133 28.6183 57.7971 28.5 57.3486 28.2407C56.9001 27.9814 56.5401 27.593 56.3153 27.1262C56.0906 26.6594 56.0116 26.1358 56.0887 25.6234C56.1657 25.1111 56.3952 24.6339 56.7473 24.2538C57.0994 23.8737 57.5577 23.6085 58.0626 23.4925C58.5676 23.3766 59.0957 23.4154 59.5783 23.6038C60.0609 23.7922 60.4756 24.1216 60.7684 24.549C61.0612 24.9764 61.2186 25.482 61.22 26.0001C61.2361 26.3281 61.1864 26.6561 61.0737 26.9645C60.9611 27.273 60.7878 27.5558 60.5641 27.7963C60.3404 28.0368 60.0709 28.23 59.7713 28.3646C59.4718 28.4992 59.1483 28.5725 58.82 28.5801H58.83ZM47.74 23.0601V24.8601H52.06C51.9922 25.7079 51.6398 26.5079 51.06 27.1301C50.6278 27.5704 50.1082 27.9152 49.5347 28.1426C48.9612 28.3699 48.3464 28.4747 47.73 28.4501C47.0996 28.4501 46.4755 28.326 45.8931 28.0847C45.3107 27.8435 44.7816 27.49 44.3359 27.0442C43.8901 26.5985 43.5366 26.0694 43.2954 25.487C43.0541 24.9046 42.93 24.2805 42.93 23.6501C42.93 23.0198 43.0541 22.3956 43.2954 21.8132C43.5366 21.2309 43.8901 20.7017 44.3359 20.256C44.7816 19.8103 45.3107 19.4567 45.8931 19.2155C46.4755 18.9743 47.0996 18.8501 47.73 18.8501C48.9478 18.8303 50.1237 19.2942 51 20.1401L52.27 18.8701C51.6785 18.2711 50.9727 17.797 50.1946 17.4758C49.4165 17.1546 48.5818 16.9928 47.74 17.0001C46.851 16.9655 45.9641 17.1107 45.1326 17.4271C44.3011 17.7434 43.5419 18.2244 42.9007 18.8411C42.2595 19.4579 41.7494 20.1977 41.401 21.0163C41.0525 21.8349 40.8729 22.7154 40.8729 23.6051C40.8729 24.4948 41.0525 25.3753 41.401 26.1939C41.7494 27.0125 42.2595 27.7524 42.9007 28.3691C43.5419 28.9859 44.3011 29.4668 45.1326 29.7831C45.9641 30.0995 46.851 30.2447 47.74 30.2101C48.5959 30.2488 49.4502 30.1037 50.2454 29.7846C51.0406 29.4655 51.7582 28.9798 52.35 28.3601C53.3977 27.209 53.957 25.6959 53.91 24.1401C53.9132 23.7611 53.8797 23.3827 53.81 23.0101L47.74 23.0601ZM93.05 24.4601C92.7892 23.6929 92.3015 23.0229 91.6515 22.539C91.0015 22.055 90.2198 21.7799 89.41 21.7501C88.863 21.749 88.3216 21.8602 87.8192 22.0767C87.3169 22.2931 86.8643 22.6103 86.4894 23.0087C86.1145 23.407 85.8252 23.878 85.6396 24.3925C85.4539 24.907 85.3758 25.4542 85.41 26.0001C85.3978 26.559 85.4984 27.1147 85.7058 27.6338C85.9132 28.153 86.2231 28.625 86.617 29.0217C87.0109 29.4184 87.4808 29.7316 87.9984 29.9427C88.5161 30.1538 89.071 30.2583 89.63 30.2501C90.3295 30.2539 91.019 30.0841 91.6368 29.756C92.2546 29.4279 92.7814 28.9518 93.17 28.3701L91.72 27.3701C91.5036 27.7309 91.1972 28.0293 90.8308 28.2362C90.4645 28.443 90.0507 28.5512 89.63 28.5501C89.1968 28.5666 88.7687 28.4524 88.4013 28.2224C88.0339 27.9923 87.7443 27.657 87.57 27.2601L93.26 24.9101L93.05 24.4601ZM87.25 25.8801C87.2297 25.5708 87.2714 25.2606 87.3725 24.9676C87.4736 24.6745 87.6322 24.4047 87.8389 24.1737C88.0457 23.9428 88.2964 23.7554 88.5765 23.6225C88.8566 23.4897 89.1603 23.4141 89.47 23.4001C89.7925 23.3789 90.1143 23.4528 90.3951 23.6128C90.676 23.7728 90.9037 24.0118 91.05 24.3001L87.25 25.8801ZM82.63 30.0001H84.5V17.5001H82.63V30.0001ZM79.57 22.7001H79.5C79.2181 22.385 78.8729 22.133 78.4869 21.9607C78.1008 21.7884 77.6827 21.6996 77.26 21.7001C76.1672 21.7531 75.1366 22.2245 74.382 23.0167C73.6273 23.8089 73.2063 24.861 73.2063 25.9551C73.2063 27.0492 73.6273 28.1014 74.382 28.8935C75.1366 29.6857 76.1672 30.1571 77.26 30.2101C77.6837 30.2172 78.1039 30.1314 78.4909 29.9586C78.8779 29.7859 79.2224 29.5304 79.5 29.2101H79.56V29.8201C79.56 31.4501 78.69 32.3201 77.29 32.3201C76.8237 32.3092 76.3712 32.1598 75.9901 31.8909C75.609 31.622 75.3166 31.2458 75.15 30.8101L73.52 31.4901C73.8268 32.2365 74.3496 32.8742 75.0213 33.3214C75.693 33.7686 76.483 34.0049 77.29 34.0001C79.48 34.0001 81.29 32.7101 81.29 29.5701V22.0001H79.57V22.7001ZM77.43 28.5801C76.7849 28.5233 76.1846 28.2268 75.7472 27.7493C75.3099 27.2717 75.0674 26.6477 75.0674 26.0001C75.0674 25.3526 75.3099 24.7285 75.7472 24.2509C76.1846 23.7734 76.7849 23.477 77.43 23.4201C77.7498 23.4365 78.0631 23.5168 78.3514 23.6562C78.6398 23.7955 78.8973 23.9912 79.1088 24.2316C79.3204 24.472 79.4817 24.7524 79.5832 25.0561C79.6847 25.3598 79.7244 25.6808 79.7 26.0001C79.7273 26.3208 79.6892 26.6437 79.5881 26.9493C79.4871 27.2548 79.3251 27.5367 79.1119 27.7779C78.8988 28.0191 78.639 28.2145 78.3482 28.3524C78.0574 28.4903 77.7416 28.5678 77.42 28.5801H77.43ZM101.81 17.5001H97.34V30.0001H99.21V25.2601H101.82C102.353 25.2984 102.888 25.2265 103.392 25.0488C103.896 24.8712 104.358 24.5916 104.749 24.2276C105.14 23.8636 105.452 23.4229 105.665 22.933C105.879 22.443 105.989 21.9144 105.989 21.3801C105.989 20.8458 105.879 20.3172 105.665 19.8273C105.452 19.3374 105.14 18.8967 104.749 18.5326C104.358 18.1686 103.896 17.889 103.392 17.7114C102.888 17.5337 102.353 17.4618 101.82 17.5001H101.81ZM101.81 23.5001H99.2V19.2401H101.85C102.419 19.2401 102.964 19.4661 103.367 19.8684C103.769 20.2706 103.995 20.8162 103.995 21.3851C103.995 21.954 103.769 22.4996 103.367 22.9019C102.964 23.3041 102.419 23.5301 101.85 23.5301L101.81 23.5001ZM113.34 21.7001C112.659 21.6594 111.981 21.8185 111.39 22.1578C110.798 22.4972 110.319 23.0019 110.01 23.6101L111.67 24.3001C111.834 23.9985 112.081 23.7509 112.383 23.5876C112.685 23.4242 113.028 23.3521 113.37 23.3801C113.607 23.3524 113.848 23.3722 114.078 23.4384C114.307 23.5047 114.521 23.616 114.708 23.7658C114.894 23.9157 115.048 24.1011 115.162 24.3113C115.276 24.5215 115.346 24.7523 115.37 24.9901V25.1201C114.769 24.8021 114.1 24.6372 113.42 24.6401C111.63 24.6401 109.82 25.6401 109.82 27.4501C109.838 27.8361 109.933 28.2145 110.099 28.5632C110.265 28.9118 110.5 29.2235 110.789 29.4799C111.078 29.7363 111.416 29.9321 111.782 30.0558C112.148 30.1795 112.535 30.2286 112.92 30.2001C113.391 30.2339 113.862 30.1404 114.285 29.9292C114.707 29.7181 115.064 29.3971 115.32 29.0001H115.38V30.0001H117.18V25.1901C117.18 23.0001 115.52 21.7301 113.39 21.7301L113.34 21.7001ZM113.11 28.5501C112.5 28.5501 111.65 28.2401 111.65 27.4901C111.65 26.4901 112.71 26.1601 113.65 26.1601C114.244 26.1455 114.831 26.2905 115.35 26.5801C115.287 27.1215 115.031 27.6221 114.629 27.9896C114.227 28.3571 113.705 28.5668 113.16 28.5801L113.11 28.5501ZM123.74 22.0001L121.6 27.4201H121.54L119.32 22.0001H117.32L120.65 29.5801L118.75 33.7901H120.7L125.82 22.0001H123.74ZM106.93 30.0001H108.8V17.5001H106.93V30.0001Z" fill="white"/>
<path d="M10.44 7.53997C10.1141 7.93108 9.94958 8.43177 9.98002 8.93997V31.06C9.94958 31.5682 10.1141 32.0689 10.44 32.46L10.51 32.53L22.9 20.15V19.86L10.51 7.46997L10.44 7.53997Z" fill="url(#paint0_linear_143_989)"/>
<path d="M27 24.28L22.9 20.15V19.86L27 15.72L27.09 15.77L32 18.56C33.4 19.35 33.4 20.65 32 21.45L27.11 24.23L27 24.28Z" fill="url(#paint1_linear_143_989)"/>
<path d="M27.1199 24.22L22.8999 20L10.4399 32.46C10.7253 32.7109 11.0893 32.8541 11.4691 32.8651C11.8489 32.876 12.2206 32.754 12.5199 32.52L27.1299 24.22" fill="url(#paint2_linear_143_989)"/>
<path d="M27.1201 15.78L12.5101 7.48005C12.2107 7.24606 11.839 7.124 11.4592 7.13496C11.0794 7.14591 10.7154 7.2892 10.4301 7.54005L22.9001 20L27.1201 15.78Z" fill="url(#paint3_linear_143_989)"/>
<path opacity="0.2" d="M26.9999 24.1299L12.5099 32.3799C12.2212 32.5957 11.8704 32.7124 11.5099 32.7124C11.1495 32.7124 10.7987 32.5957 10.5099 32.3799L10.4399 32.4499L10.5099 32.5199C10.798 32.7373 11.1491 32.8549 11.5099 32.8549C11.8708 32.8549 12.2219 32.7373 12.5099 32.5199L27.1199 24.2199L26.9999 24.1299Z" fill="black"/>
<path opacity="0.12" d="M10.44 32.32C10.1141 31.9289 9.94958 31.4282 9.98002 30.92V31.07C9.94958 31.5782 10.1141 32.0789 10.44 32.47L10.51 32.4L10.44 32.32ZM32 21.3L27 24.13L27.09 24.22L32 21.44C32.2786 21.3091 32.5178 21.1071 32.6933 20.8543C32.8689 20.6014 32.9747 20.3068 33 20C32.9438 20.2787 32.8244 20.5408 32.6511 20.7662C32.4777 20.9915 32.255 21.1742 32 21.3Z" fill="black"/>
<path opacity="0.25" d="M12.51 7.61994L32 18.6999C32.2549 18.8258 32.4776 19.0084 32.651 19.2338C32.8244 19.4591 32.9437 19.7212 33 19.9999C32.9747 19.6932 32.8689 19.3985 32.6933 19.1457C32.5177 18.8929 32.2786 18.6908 32 18.5599L12.51 7.47994C11.11 6.68994 9.96997 7.34994 9.96997 8.94994V9.09994C9.99997 7.48994 11.12 6.82994 12.51 7.61994Z" fill="white"/>
<path d="M42.11 14.27H41.37V12.27H42C42.2873 11.9656 42.5042 11.6018 42.6355 11.2044C42.7668 10.807 42.8093 10.3856 42.76 9.96997V6.99997H46.76V12.26H47.43V14.26H46.69V13H42.11V14.27ZM43.5 9.99997C43.5467 10.8066 43.3479 11.6085 42.93 12.3H45.93V7.73997H43.5V9.99997ZM53.41 12.22C52.8254 12.8013 52.0345 13.1276 51.21 13.1276C50.3855 13.1276 49.5946 12.8013 49.01 12.22C48.4418 11.6185 48.1252 10.8224 48.1252 9.99497C48.1252 9.16753 48.4418 8.37145 49.01 7.76997C49.2981 7.47971 49.6409 7.24935 50.0185 7.09214C50.396 6.93494 50.801 6.854 51.21 6.854C51.619 6.854 52.0239 6.93494 52.4015 7.09214C52.7791 7.24935 53.1218 7.47971 53.41 7.76997C53.9805 8.3703 54.2986 9.16682 54.2986 9.99497C54.2986 10.8231 53.9805 11.6196 53.41 12.22ZM49.58 11.72C50.0129 12.1511 50.599 12.3931 51.21 12.3931C51.821 12.3931 52.4071 12.1511 52.84 11.72C53.2672 11.249 53.5039 10.6359 53.5039 9.99997C53.5039 9.36408 53.2672 8.75095 52.84 8.27997C52.4071 7.84885 51.821 7.6068 51.21 7.6068C50.599 7.6068 50.0129 7.84885 49.58 8.27997C49.1528 8.75095 48.9161 9.36408 48.9161 9.99997C48.9161 10.6359 49.1528 11.249 49.58 11.72ZM58.18 13.13C57.7672 13.1382 57.357 13.0627 56.9741 12.9082C56.5911 12.7537 56.2435 12.5233 55.952 12.2309C55.6605 11.9384 55.4312 11.59 55.2779 11.2066C55.1246 10.8232 55.0505 10.4128 55.06 9.99997C55.0505 9.58717 55.1246 9.17672 55.2779 8.79332C55.4312 8.40993 55.6605 8.06152 55.952 7.76908C56.2435 7.47665 56.5911 7.24623 56.9741 7.09171C57.357 6.93719 57.7672 6.86176 58.18 6.86997C58.5984 6.85961 59.0138 6.94421 59.3948 7.11741C59.7758 7.29061 60.1127 7.5479 60.38 7.86997L59.84 8.38997C59.6425 8.13922 59.3878 7.93938 59.0973 7.80717C58.8068 7.67495 58.4888 7.61419 58.17 7.62997C57.863 7.62199 57.5577 7.67637 57.2723 7.78981C56.987 7.90326 56.7277 8.07341 56.51 8.28997C56.0764 8.76377 55.836 9.38273 55.836 10.025C55.836 10.6672 56.0764 11.2862 56.51 11.76C56.7277 11.9765 56.987 12.1467 57.2723 12.2601C57.5577 12.3736 57.863 12.4279 58.17 12.42C58.522 12.4168 58.8688 12.3353 59.1854 12.1814C59.5019 12.0274 59.7802 11.8049 60 11.53L60.54 12.07C60.2678 12.4001 59.9264 12.6664 59.54 12.85C59.1131 13.0433 58.6485 13.139 58.18 13.13ZM63.68 13H62.91V7.73997H61.23V6.99997H65.35V7.73997H63.68V13ZM70.65 6.99997L68.38 12.06C68.2891 12.3593 68.1076 12.623 67.8604 12.8147C67.6131 13.0064 67.3125 13.1165 67 13.13C66.7933 13.1273 66.5892 13.0831 66.4 13L66.6 12.29C66.7215 12.3607 66.8594 12.3986 67 12.4C67.147 12.411 67.2938 12.3761 67.42 12.3C67.5405 12.198 67.6333 12.0673 67.69 11.92L67.91 11.44L65.91 7.00997H66.82L68.3 10.45L69.74 6.99997H70.65ZM71.52 13V6.99997H75.86V13H75.09V7.73997H72.29V13H71.52ZM77.23 13V6.99997H78V9.56997H81V6.99997H81.77V13H81V10.29H78V13H77.23ZM88.06 12.22C87.4754 12.8013 86.6845 13.1276 85.86 13.1276C85.0355 13.1276 84.2446 12.8013 83.66 12.22C83.0918 11.6185 82.7752 10.8224 82.7752 9.99497C82.7752 9.16753 83.0918 8.37145 83.66 7.76997C83.9482 7.47971 84.2909 7.24935 84.6685 7.09214C85.046 6.93494 85.451 6.854 85.86 6.854C86.269 6.854 86.6739 6.93494 87.0515 7.09214C87.4291 7.24935 87.7718 7.47971 88.06 7.76997C88.6305 8.3703 88.9486 9.16682 88.9486 9.99497C88.9486 10.8231 88.6305 11.6196 88.06 12.22ZM84.23 11.72C84.6629 12.1511 85.249 12.3931 85.86 12.3931C86.471 12.3931 87.0571 12.1511 87.49 11.72C87.9172 11.249 88.1539 10.6359 88.1539 9.99997C88.1539 9.36408 87.9172 8.75095 87.49 8.27997C87.0571 7.84885 86.471 7.6068 85.86 7.6068C85.249 7.6068 84.6629 7.84885 84.23 8.27997C83.8028 8.75095 83.5661 9.36408 83.5661 9.99997C83.5661 10.6359 83.8028 11.249 84.23 11.72ZM92.09 13V6.99997H94.26C94.7106 6.99146 95.1472 7.1561 95.48 7.45997C95.818 7.75397 96.009 8.18197 96 8.62997C96.0047 8.89653 95.9279 9.15818 95.78 9.37997C95.6332 9.5954 95.4287 9.7652 95.19 9.86997C95.48 9.96597 95.734 10.147 95.92 10.39C96.112 10.635 96.215 10.939 96.21 11.25C96.2151 11.4805 96.1694 11.7093 96.076 11.9202C95.9827 12.131 95.8441 12.3188 95.67 12.47C95.3218 12.7912 94.8637 12.9665 94.39 12.96L92.09 13ZM92.86 9.56997H94.26C94.3907 9.57543 94.5211 9.55231 94.642 9.50222C94.7629 9.45214 94.8714 9.37629 94.96 9.27997C95.0485 9.19969 95.12 9.1024 95.1701 8.9939C95.2202 8.8854 95.248 8.76792 95.2517 8.64846C95.2555 8.52901 95.2351 8.41002 95.1918 8.2986C95.1486 8.18719 95.0833 8.08562 95 7.99997C94.9164 7.90544 94.8131 7.83046 94.6973 7.78035C94.5815 7.73023 94.4561 7.7062 94.33 7.70997H92.9L92.86 9.56997ZM92.86 12.26H94.41C94.5454 12.2645 94.6802 12.2391 94.8047 12.1855C94.9291 12.1319 95.0402 12.0515 95.13 11.95C95.3063 11.7671 95.4064 11.524 95.41 11.27C95.41 11.0048 95.3046 10.7504 95.1171 10.5629C94.9296 10.3753 94.6752 10.27 94.41 10.27H92.89L92.86 12.26Z" fill="white" stroke="white" stroke-width="0.2"/>
</g>
</g>
<defs>
<linearGradient id="paint0_linear_143_989" x1="1192.33" y1="131.467" x2="-791.609" y2="659.098" gradientUnits="userSpaceOnUse">
<stop stop-color="#00A0FF"/>
<stop offset="0.01" stop-color="#00A1FF"/>
<stop offset="0.26" stop-color="#00BEFF"/>
<stop offset="0.51" stop-color="#00D2FF"/>
<stop offset="0.76" stop-color="#00DFFF"/>
<stop offset="1" stop-color="#00E3FF"/>
</linearGradient>
<linearGradient id="paint1_linear_143_989" x1="1115.9" y1="443.72" x2="-1303.1" y2="443.72" gradientUnits="userSpaceOnUse">
<stop stop-color="#FFE000"/>
<stop offset="0.41" stop-color="#FFBD00"/>
<stop offset="0.78" stop-color="#FFA500"/>
<stop offset="1" stop-color="#FF9C00"/>
</linearGradient>
<linearGradient id="paint2_linear_143_989" x1="1449.43" y1="250.001" x2="-144.208" y2="2930.66" gradientUnits="userSpaceOnUse">
<stop stop-color="#FF3A44"/>
<stop offset="1" stop-color="#C31162"/>
</linearGradient>
<linearGradient id="paint3_linear_143_989" x1="-302.574" y1="-688.286" x2="408.758" y2="508.759" gradientUnits="userSpaceOnUse">
<stop stop-color="#32A071"/>
<stop offset="0.07" stop-color="#2DA771"/>
<stop offset="0.48" stop-color="#15CF74"/>
<stop offset="0.8" stop-color="#06E775"/>
<stop offset="1" stop-color="#00F076"/>
</linearGradient>
<clipPath id="clip0_143_989">
<rect width="135" height="40" fill="white"/>
</clipPath>
<clipPath id="clip1_143_989">
<rect width="135" height="40" fill="white"/>
</clipPath>
</defs>
</svg>
